<svg width="39" height="40" viewBox="0 0 39 40" fill="none" xmlns="http://www.w3.org/2000/svg">
<path d="M16.5684 9.60107C16.207 10.1187 15.7017 10.5068 15.0522 10.7656C14.4077 11.0195 13.6558 11.1465 12.7964 11.1465C11.9272 11.1465 11.1558 10.9438 10.4819 10.5386C9.80811 10.1284 9.28564 9.54736 8.91455 8.79541C8.54834 8.04346 8.36035 7.17188 8.35059 6.18066V5.25049C8.35059 3.64404 8.72412 2.39893 9.47119 1.51514C10.2231 0.631348 11.2778 0.189453 12.6353 0.189453C13.7485 0.189453 14.6445 0.475098 15.3232 1.04639C16.002 1.61279 16.417 2.41846 16.5684 3.46338H15.1621C14.8984 2.05225 14.0586 1.34668 12.6426 1.34668C11.7002 1.34668 10.9849 1.67871 10.4966 2.34277C10.0132 3.00195 9.76904 3.95898 9.76416 5.21387V6.08545C9.76416 7.28174 10.0376 8.23389 10.5845 8.94189C11.1313 9.64502 11.8711 9.99658 12.8037 9.99658C13.3311 9.99658 13.7925 9.93799 14.188 9.8208C14.5835 9.70361 14.9106 9.50586 15.1694 9.22754V6.83252H12.7012V5.68994H16.5684V9.60107ZM21.9956 11.1465C20.9214 11.1465 20.0474 10.7949 19.3735 10.0918C18.6997 9.38379 18.3628 8.43896 18.3628 7.25732V7.0083C18.3628 6.22217 18.5117 5.52148 18.8096 4.90625C19.1123 4.28613 19.5322 3.80273 20.0693 3.45605C20.6113 3.10449 21.1973 2.92871 21.8271 2.92871C22.8574 2.92871 23.6582 3.26807 24.2295 3.94678C24.8008 4.62549 25.0864 5.59717 25.0864 6.86182V7.42578H19.7178C19.7373 8.20703 19.9644 8.83936 20.3989 9.32275C20.8384 9.80127 21.395 10.0405 22.0688 10.0405C22.5474 10.0405 22.9526 9.94287 23.2847 9.74756C23.6167 9.55225 23.9072 9.29346 24.1562 8.97119L24.9839 9.61572C24.3198 10.6362 23.3237 11.1465 21.9956 11.1465ZM21.8271 4.04199C21.2803 4.04199 20.8213 4.24219 20.4502 4.64258C20.0791 5.03809 19.8496 5.59473 19.7617 6.3125H23.7314V6.20996C23.6924 5.52148 23.5068 4.98926 23.1748 4.61328C22.8428 4.23242 22.3936 4.04199 21.8271 4.04199ZM28.4995 1.15625V3.0752H29.979V4.12256H28.4995V9.03711C28.4995 9.35449 28.5654 9.59375 28.6973 9.75488C28.8291 9.91113 29.0537 9.98926 29.3711 9.98926C29.5273 9.98926 29.7422 9.95996 30.0156 9.90137V11C29.6592 11.0977 29.3125 11.1465 28.9756 11.1465C28.3701 11.1465 27.9136 10.9634 27.606 10.5972C27.2983 10.231 27.1445 9.71094 27.1445 9.03711V4.12256H25.7017V3.0752H27.1445V1.15625H28.4995ZM6.58398 22.293C6.47852 23.1953 6.14453 23.8926 5.58203 24.3848C5.02344 24.873 4.2793 25.1172 3.34961 25.1172C2.3418 25.1172 1.5332 24.7559 0.923828 24.0332C0.318359 23.3105 0.015625 22.3438 0.015625 21.1328V20.3125C0.015625 19.5195 0.15625 18.8223 0.4375 18.2207C0.722656 17.6191 1.125 17.1582 1.64453 16.8379C2.16406 16.5137 2.76562 16.3516 3.44922 16.3516C4.35547 16.3516 5.08203 16.6055 5.62891 17.1133C6.17578 17.6172 6.49414 18.3164 6.58398 19.2109H5.45312C5.35547 18.5312 5.14258 18.0391 4.81445 17.7344C4.49023 17.4297 4.03516 17.2773 3.44922 17.2773C2.73047 17.2773 2.16602 17.543 1.75586 18.0742C1.34961 18.6055 1.14648 19.3613 1.14648 20.3418V21.168C1.14648 22.0938 1.33984 22.8301 1.72656 23.377C2.11328 23.9238 2.6543 24.1973 3.34961 24.1973C3.97461 24.1973 4.45312 24.0566 4.78516 23.7754C5.12109 23.4902 5.34375 22.9961 5.45312 22.293H6.58398ZM11.8691 24.373C11.4473 24.8691 10.8281 25.1172 10.0117 25.1172C9.33594 25.1172 8.82031 24.9219 8.46484 24.5312C8.11328 24.1367 7.93555 23.5547 7.93164 22.7852V18.6602H9.01562V22.7559C9.01562 23.7168 9.40625 24.1973 10.1875 24.1973C11.0156 24.1973 11.5664 23.8887 11.8398 23.2715V18.6602H12.9238V25H11.8926L11.8691 24.373ZM17.6406 19.6328C17.4766 19.6055 17.2988 19.5918 17.1074 19.5918C16.3965 19.5918 15.9141 19.8945 15.6602 20.5V25H14.5762V18.6602H15.6309L15.6484 19.3926C16.0039 18.8262 16.5078 18.543 17.1602 18.543C17.3711 18.543 17.5312 18.5703 17.6406 18.625V19.6328ZM21.707 19.6328C21.543 19.6055 21.3652 19.5918 21.1738 19.5918C20.4629 19.5918 19.9805 19.8945 19.7266 20.5V25H18.6426V18.6602H19.6973L19.7148 19.3926C20.0703 18.8262 20.5742 18.543 21.2266 18.543C21.4375 18.543 21.5977 18.5703 21.707 18.625V19.6328ZM25.2227 25.1172C24.3633 25.1172 23.6641 24.8359 23.125 24.2734C22.5859 23.707 22.3164 22.9512 22.3164 22.0059V21.8066C22.3164 21.1777 22.4355 20.6172 22.6738 20.125C22.916 19.6289 23.252 19.2422 23.6816 18.9648C24.1152 18.6836 24.584 18.543 25.0879 18.543C25.9121 18.543 26.5527 18.8145 27.0098 19.3574C27.4668 19.9004 27.6953 20.6777 27.6953 21.6895V22.1406H23.4004C23.416 22.7656 23.5977 23.2715 23.9453 23.6582C24.2969 24.041 24.7422 24.2324 25.2812 24.2324C25.6641 24.2324 25.9883 24.1543 26.2539 23.998C26.5195 23.8418 26.752 23.6348 26.9512 23.377L27.6133 23.8926C27.082 24.709 26.2852 25.1172 25.2227 25.1172ZM25.0879 19.4336C24.6504 19.4336 24.2832 19.5938 23.9863 19.9141C23.6895 20.2305 23.5059 20.6758 23.4355 21.25H26.6113V21.168C26.5801 20.6172 26.4316 20.1914 26.166 19.8906C25.9004 19.5859 25.541 19.4336 25.0879 19.4336ZM29.9805 18.6602L30.0156 19.457C30.5 18.8477 31.1328 18.543 31.9141 18.543C33.2539 18.543 33.9297 19.2988 33.9414 20.8105V25H32.8574V20.8047C32.8535 20.3477 32.748 20.0098 32.541 19.791C32.3379 19.5723 32.0195 19.4629 31.5859 19.4629C31.2344 19.4629 30.9258 19.5566 30.6602 19.7441C30.3945 19.9316 30.1875 20.1777 30.0391 20.4824V25H28.9551V18.6602H29.9805ZM37.0469 17.125V18.6602H38.2305V19.498H37.0469V23.4297C37.0469 23.6836 37.0996 23.875 37.2051 24.0039C37.3105 24.1289 37.4902 24.1914 37.7441 24.1914C37.8691 24.1914 38.041 24.168 38.2598 24.1211V25C37.9746 25.0781 37.6973 25.1172 37.4277 25.1172C36.9434 25.1172 36.5781 24.9707 36.332 24.6777C36.0859 24.3848 35.9629 23.9688 35.9629 23.4297V19.498H34.8086V18.6602H35.9629V17.125H37.0469ZM17.916 34.207H18.7305C19.2422 34.1992 19.6445 34.0645 19.9375 33.8027C20.2305 33.541 20.377 33.1875 20.377 32.7422C20.377 31.7422 19.8789 31.2422 18.8828 31.2422C18.4141 31.2422 18.0391 31.377 17.7578 31.6465C17.4805 31.9121 17.3418 32.2656 17.3418 32.707H16.2578C16.2578 32.0312 16.5039 31.4707 16.9961 31.0254C17.4922 30.5762 18.1211 30.3516 18.8828 30.3516C19.6875 30.3516 20.3184 30.5645 20.7754 30.9902C21.2324 31.416 21.4609 32.0078 21.4609 32.7656C21.4609 33.1367 21.3398 33.4961 21.0977 33.8438C20.8594 34.1914 20.5332 34.4512 20.1191 34.623C20.5879 34.7715 20.9492 35.0176 21.2031 35.3613C21.4609 35.7051 21.5898 36.125 21.5898 36.6211C21.5898 37.3867 21.3398 37.9941 20.8398 38.4434C20.3398 38.8926 19.6895 39.1172 18.8887 39.1172C18.0879 39.1172 17.4355 38.9004 16.9316 38.4668C16.4316 38.0332 16.1816 37.4609 16.1816 36.75H17.2715C17.2715 37.1992 17.418 37.5586 17.7109 37.8281C18.0039 38.0977 18.3965 38.2324 18.8887 38.2324C19.4121 38.2324 19.8125 38.0957 20.0898 37.8223C20.3672 37.5488 20.5059 37.1562 20.5059 36.6445C20.5059 36.1484 20.3535 35.7676 20.0488 35.502C19.7441 35.2363 19.3047 35.0996 18.7305 35.0918H17.916V34.207Z" fill="black"/>
</svg>
